<?xml version="1.0" standalone="no"?>
<svg viewBox="0 0 200 200" xmlns="http://www.w3.org/2000/svg">
  <path fill="#000A61" d="M36.6,-70.5C44.6,-58.9,46.3,-43.3,52.9,-30.9C59.6,-18.5,71.2,-9.2,75.3,2.4C79.4,14,75.9,27.9,68.1,38.3C60.4,48.7,48.2,55.6,36.1,62.6C24,69.6,12,76.8,-1.9,80C-15.8,83.2,-31.5,82.5,-43.9,75.7C-56.4,68.9,-65.5,56,-74.1,42.3C-82.8,28.7,-90.9,14.4,-91.5,-0.3C-92.1,-15,-85.1,-30.1,-75.1,-41.4C-65.1,-52.7,-52.2,-60.3,-39.2,-69.1C-26.1,-77.8,-13.1,-87.7,0.6,-88.8C14.3,-89.8,28.6,-82.1,36.6,-70.5Z" transform="translate(100 100)" />
</svg>
