<svg xmlns="http://www.w3.org/2000/svg" width="216.235" height="188.177"><defs><linearGradient id="a" x1=".785" y1=".717" x2=".036" y2=".147" gradientUnits="objectBoundingBox"><stop offset="0" stop-color="#5da2cc"/><stop offset="1" stop-color="#5da2cc" stop-opacity=".22"/></linearGradient><linearGradient id="b" x1="1" y1=".5" x2="0" y2=".5" gradientUnits="objectBoundingBox"><stop offset="0" stop-color="#d8c59e"/><stop offset=".521" stop-color="#d8c59e"/><stop offset="1" stop-color="#d8c59e" stop-opacity=".376"/></linearGradient></defs><g data-name="Group 7258"><g data-name="Group 7214"><g data-name="Group 7159"><ellipse cx="106.431" cy="3.263" rx="106.431" ry="3.263" fill="#ccc" transform="translate(0 181.65)"/><path data-name="Path 2870" d="M180.079 99.497c-1.82.011-35 .79-35.824.361s-4.84-2.25-4.207-2.128-5.208-.425-5.208-.425-7.487 4.887-8.5 4.864c-2-.045 3.262.619 5.963 1.978a44.424 44.424 0 016.8-.049 31.614 31.614 0 004.029-.043c.267.014 33.034 4.142 33.034 4.142z" fill="#eacebf" fill-rule="evenodd"/><path data-name="Path 2871" d="M190.549 86.146c1.134 3.117 1.29 7.213-.825 9.087-2.9 2.566-15.817 12.768-19.736 14.38 0 0-2.533.29-7.176-8.624 0 0 10.2-8.626 18.993-14.519 3.106-2.08 7.623-3.406 8.744-.324z" fill="#deb936" fill-rule="evenodd"/><path data-name="Path 2872" d="M130.358 96.475c-.38-.225-3.34-2.046-3.437-2.049s-3.679-1.158-3.837-1.109c-.271.083-4.485 3.645-4.326 3.833a4.556 4.556 0 002.037.273c1.249-.532 2.3-2.22 2.861-2.361.761-.192 2.408.353 2.9.241a20.859 20.859 0 013.802 1.172z" fill="#e0bead" fill-rule="evenodd"/><g data-name="Group 6530" fill-rule="evenodd"><path data-name="Path 2873" d="M116.632 103.448a.1.1 0 00.139-.03l.288-.452a.1.1 0 00-.031-.142.1.1 0 00-.139.031l-.288.452a.105.105 0 00.031.141z" fill="#242829"/><path data-name="Path 2874" d="M125.366 89.691c-.134-.087-.125-.342.02-.568s.369-.34.5-.252.125.342-.02.568-.366.339-.5.252z" fill="#272525"/><path data-name="Path 2875" d="M116.692 102.927c.061-.244.274-1.09.3-1.16a3.8 3.8 0 01.22-.464c.137-.246.236-.248 1.128-1.711s5.93-9.212 6.239-9.7.308-.6.507-.7.224-.085.313-.033c.037.022.131.077.235.141s.189.135.224.16c.084.062.115.075.1.3s-.115.275-.424.759-5.2 8.331-6.148 9.757-.908 1.518-1.073 1.746a3.909 3.909 0 01-.326.394c-.05.057-.723.6-.918.759z" fill="#434345"/><path data-name="Path 2876" d="M118.518 100.241l.221.144a.142.142 0 00.2-.044l2.029-3.186a.145.145 0 00-.043-.2l-.22-.144a.142.142 0 00-.2.042l-2.029 3.187a.146.146 0 00.042.201z" fill="#353436"/><path data-name="Path 2877" d="M118.935 100.342a.142.142 0 01-.2.044l-.111-.072 2.184-3.428.109.072a.145.145 0 01.043.2z" fill="#302f30"/><path data-name="Path 2878" d="M118.737 100.385a.142.142 0 00.2-.044l2.029-3.186a.145.145 0 00-.043-.2l-.109-.072 4.829-7.585.224.16c.084.062.115.074.1.3s-.115.275-.424.759-5.2 8.331-6.148 9.757-.908 1.518-1.073 1.746a3.909 3.909 0 01-.326.394c-.05.057-.723.6-.918.759l-.107-.07-.085-.056.145-.228 1.6-2.511z" fill="#484749"/><path data-name="Path 2879" d="M116.884 103.053l.085.056-.2.31a.1.1 0 01-.14.031z" fill="#222627"/></g><path data-name="Path 2880" d="M190.381 62.563c-.722 5.555-1.722 5.861-.256 13.3 0 0-9.546 4.672-9.481 4.338.707-3.589-.97-3.794-1.718-10.492z" fill="#f0d0bf" fill-rule="evenodd"/><path data-name="Path 2881" d="M164.045 47.827c-.306 1-2.629 5.74-2.2 6.874s1.834 4.806 1.834 4.806-2.445 5.013-2.934 5.613 3.462 1.116 3.485 1.128a7.367 7.367 0 00-.19 2.229c.3 1.94 4.386 5.893 5.813 6.372 1.567.527 12.6-1.894 13.516-3.362s3.607-5.539 3.607-5.539l-.061-1.4c-.324-7.425-2.528-14.095-3.546-22.092z" fill="#f0d0bf" fill-rule="evenodd"/><path data-name="Path 2882" d="M163.655 62.439c.123.067.358 1.874 1.827 2.552a3.054 3.054 0 004.035-1.4 12.007 12.007 0 00.475-4.722l11.639-2 .3-1.39-16.689 2.527z" fill="#eac5af" fill-rule="evenodd"/><path data-name="Path 2883" d="M160.744 65.121c-.489.6 3.462 1.115 3.485 1.128v.02c1.17-.449.913-.15 1.325-1.513 0 0-1.22.739-1.3.8a27.97 27.97 0 01-3.51-.435z" fill="#e0bead" fill-rule="evenodd"/><path data-name="Path 2884" d="M167.068 72.755a10.052 10.052 0 002.789 2.1c1.567.527 12.6-1.894 13.516-3.362s3.602-5.544 3.602-5.544l-.031-.7s-4.582 5.791-4.8 5.919-9.507 2.473-11.154 2.7a8.485 8.485 0 01-3.922-1.113z" fill="#eac5af" fill-rule="evenodd"/><path data-name="Path 2885" d="M179.123 63.487c3.1-1.634 2.968-3.65 4.765-6.773 0 0 1.531-2.045 4.367-.389a4.8 4.8 0 011.822 6.689c-1.212 1.652-2.456 3.829-2.456 3.829a4.7 4.7 0 00-.62 2c-.209 1.453 1.273 3.306 1.273 3.306s-.086-3.086-.095-2.966 1.791 3.539 1.791 3.539l-.289-3.078s2.2 3.225 1.735 2.28-.049-5.673 1.829-8.093c4.2-5.409 6.926-14.007.539-19.009 0 0 1.709-1.7 1.364-1.619s-2.013.579-2.013.579a3.27 3.27 0 00-.208-2.256 12.225 12.225 0 00-1.837-2.5c1.4 3.1.912 3.372.912 3.372s-.488-3.148-7.518-6.075c-9.406-3.917-17.635 5.334-26.967 4.712 2.582 8.939 17.6 10.617 22.752 8.84.588-.2 2.409 2.215 2.31 2.619-.881 3.602-1.463 8.522-3.456 10.993z" fill="#796a53" fill-rule="evenodd"/><path data-name="Path 2886" d="M190.295 58.501a4.567 4.567 0 01-.215 4.515c-1.212 1.652-2.456 3.829-2.456 3.829a4.7 4.7 0 00-.62 2c-.209 1.453 1.272 3.306 1.272 3.306s-.086-3.086-.095-2.966 1.791 3.539 1.791 3.539l-.289-3.078s2.2 3.225 1.735 2.28-.049-5.673 1.829-8.093a22.514 22.514 0 003.327-5.948c-1.547 3.091-3.465 5.32-5.286 8-.174.257-1.882 2.955-1.891 3.1a5.537 5.537 0 011.7-4c-.638.414-3.114 2.965-3.232 3.566a6.741 6.741 0 01.808-2.056c.761-1.429 2.361-3.518 2.836-5.863s-.349-2.441-.729-2.827c0 .003-.149.232-.485.696z" fill="#73624a" fill-rule="evenodd"/><path data-name="Path 2887" d="M179.128 63.488c3.1-1.634 2.968-3.65 4.765-6.773a2.441 2.441 0 01.423-.409c.536-2.936.06-4.529-.6-5.367a7.571 7.571 0 00-2.44-1.671l1.774-1.7c-5.783 1.482-12.114.723-17.961-.028a14.28 14.28 0 008.025-2.232c-8.791.648-12.43-1.546-12.627-1.692-.008-.006 5.915.218 9.855-1.381a46.091 46.091 0 01-5.641-.064c-3.042-.289-7.183-1.131-7.183-1.131 2.582 8.939 17.6 10.617 22.752 8.84.588-.2 2.409 2.215 2.31 2.619-.882 3.597-1.464 8.518-3.452 10.989z" fill="#73624a" fill-rule="evenodd"/><path data-name="Path 2888" d="M142.741 138.977c.106.028-13.859 4.081-13.859 4.081-6.431 7.131-8.986 20.018-12.835 29.428-2.252 5.508-3.23 7.365-3.483 7.3-2.448-.642-11.541-13.251-11.218-13.621l26.935-30.777z" fill="#3f474e" fill-rule="evenodd"/><path data-name="Path 2889" d="M114.096 177.605a10.019 10.019 0 01-1.31 2.565c-1.91-.829-12.434-8.278-14.534-11.457 1.213-.4 3.59-1.541 3.59-1.541.035.043 11.785 10.249 12.254 10.433z" fill="#39424b" fill-rule="evenodd"/><path data-name="Path 2890" d="M101.09 157.505c-1.521.257-3.3 1.927-6.719.45s-9.76-9.316-11.6-9.38-1.775.514-2.408 2.506 12.866 24.222 13.246 23.965 9.4-6.266 9.4-6.266z" fill="#525354" fill-rule="evenodd"/><path data-name="Path 2891" d="M98.845 158.266a6.032 6.032 0 01-4.474-.313c-2.135-.922-5.405-4.319-8.009-6.761a2.6 2.6 0 00.078 1.719c.443.9 1.679 5.557 4.975 7.228s8.135.455 8.135.455l-.7-2.329z" fill="#686867" fill-rule="evenodd"/><path data-name="Path 2892" d="M82.647 148.574c-8.986-.261 9.314 25.672 11.441 27.917a16.211 16.211 0 001.4-1.132s-4.626-7.2-7.986-12.978a40.489 40.489 0 01-4.722-13.042 2.216 2.216 0 00-.133-.765z" fill="#a08a6c" fill-rule="evenodd"/><path data-name="Path 2893" d="M177.843 127.683c-.38 2.056-1.268 5.782-4.817 7.838s-44.368 4.362-44.368 4.362-14.549 19.75-23.275 27.2c-2.094 1.787-2.3 1.849-2.372 1.7-.38-.771-8.882-12.776-8.122-13.162 2.609-1.323 19.954-17.5 24.013-21.3 3.711-3.475 4.609-5.037 10.558-5.928 6.125-.917 29.254-4.075 30.765-4.177 1.901-.133 17.618 3.467 17.618 3.467z" fill="#49535a" fill-rule="evenodd"/><path data-name="Path 2894" d="M170.093 127.45l-.182.151a20.409 20.409 0 01-9.424 4.66 63.731 63.731 0 01-8.764.273c-6.894-.039-15.617-.09-21.333 1.926-8.826 3.112-30.719 27.086-30.782 27.155l.494.466c.063-.069 21.844-23.92 30.51-26.976 5.608-1.977 14.266-1.928 21.109-1.888a64.017 64.017 0 008.878-.281 21.074 21.074 0 009.743-4.81l.171-.144z" fill="#434c54" fill-rule="evenodd"/><path data-name="Path 2895" d="M104.868 167.515c-1.614 1.359-1.79 1.4-1.857 1.263-.38-.771-8.882-12.776-8.122-13.162a8.635 8.635 0 001.1-.747c1.2 1.992 4.5 7.424 6.159 9.461a96.485 96.485 0 002.72 3.185z" fill="#434f59" fill-rule="evenodd"/><path data-name="Path 2896" d="M181.717 79.242c2.419-2.519 6.618-3.323 7.407-3.476 1.149-.223 1.458-.578 2.028-.385.123.041.226.278.895.96.1.1-.929.083-.625.516.549.779 2.509 2.564 2.873 5.2.516 3.747-.613 4.941-1.495 12.724-1.267 11.179-4.943 25.828-10.394 33.538s-3.169 7.967-3.676 7.067-5.324-4.369-9.126-5.525-16.263-4.8-16.263-4.8 7.39-4.069 11.446-8.7c6.606-7.524 13.914-33.978 16.93-37.119z" fill="#f1c930" fill-rule="evenodd"/><path data-name="Path 2897" d="M102.113 172.565l-2.034-1.833a28.782 28.782 0 01-7.158 1.758c-6.334-.158-15.387-.094-16.464 1.255a4.085 4.085 0 00.19 4.947c1.141 1.092 28.14 7.517 28.33 7.068s4.058-7.944 4.058-7.944z" fill="#59595b" fill-rule="evenodd"/><path data-name="Path 2898" d="M102.69 173.045l-1.594-1.4-1.017-.916a28.782 28.782 0 01-7.158 1.758c-3.784-.094-8.538-.11-11.983.181.5 1.161 3.694 1.765 6.042 2.311 3.707.864 13.711-.867 15.71-1.934z" fill="#686867" fill-rule="evenodd"/><g data-name="Group 6531" fill-rule="evenodd"><path data-name="Path 2899" d="M106.733 102.249l-1.686-.081-.16 1.068 1.906.092z" fill="#ccc"/><path data-name="Path 2900" d="M104.302 102.133l-1.685-.081-.16 1.067 1.905.092z" fill="#ccc"/><path data-name="Path 2901" d="M101.872 102.015l-1.685-.081-.16 1.068 1.905.092z" fill="#ccc"/><path data-name="Path 2902" d="M99.441 101.898l-1.685-.082-.161 1.068 1.905.092z" fill="#ccc"/><path data-name="Path 2903" d="M97.011 101.778l-1.686-.081-.161 1.068 1.907.092z" fill="#ccc"/><path data-name="Path 2904" d="M94.581 101.663l-1.686-.081-.161 1.068 1.907.092z" fill="#ccc"/><path data-name="Path 2905" d="M92.151 101.546l-1.686-.081-.161 1.068 1.906.092z" fill="#ccc"/><path data-name="Path 2906" d="M108.161 103.512a.545.545 0 00-.139-.392.533.533 0 00-.372-.178l-19.73-.952a.533.533 0 00-.387.141.549.549 0 00-.176.377l-.016.35a.541.541 0 00.51.57l19.731.952a.54.54 0 00.562-.518z" fill="#a5a7a9"/><path data-name="Path 2907" d="M88.853 102.867l-.524-.076-.01.609.1.977h.4s.023-1.511.034-1.51z" fill="#a5a7a9"/></g><path data-name="Path 2908" d="M131.698 103.537H102.29a.608.608 0 00-.6.61.608.608 0 00.6.61h29.408a.608.608 0 00.6-.61.608.608 0 00-.6-.61z" fill="#424243" fill-rule="evenodd"/><path data-name="Path 2909" d="M169.692 90.469l-9.352 6.345s-26.7.149-27.265-.351c-.247-.159-7.952-3.134-8.072-3.134a37.473 37.473 0 00-4.962 3.159c-.221.224-2.392 3.343-2.774 3.976s-.362.938.04 1.1 1.026-.2 1.65-.592a5.031 5.031 0 00.805-.571.836.836 0 00.141 1.02c.483.408.805.265.805.265a.765.765 0 00.463.735 1.526 1.526 0 00.926 0s0 .449.966.571a7.508 7.508 0 002.878-.816s1.158 1.4 3.975 1.194a11.481 11.481 0 003.718-1.315l29.125 2.232s12.805-7.831 12.243-8.615-5.31-5.203-5.31-5.203z" fill="#f0d0bf" fill-rule="evenodd"/><path data-name="Path 2910" d="M116.994 101.124a.412.412 0 00.313.445c.4.163 1.026-.2 1.65-.592a5.026 5.026 0 00.805-.571.836.836 0 00.141 1.02c.483.408.805.265.805.265a.765.765 0 00.463.735 1.525 1.525 0 00.926 0s0 .449.966.571a7.509 7.509 0 002.878-.816s1.158 1.4 3.975 1.194a11.605 11.605 0 003.528-1.09l29.315 2.007s3.456-2.113 6.7-4.254l-.671-1.787s-5.261 4.562-8.112 4.819-27.363-1.607-27.363-1.607a5.847 5.847 0 01-6.972.707c-.4-.272.016-1.2.016-1.2s-.429.693-.65 1.012-3.23 1.161-3.169.337c.011-.149 3.033-3.7 3.542-4.37.081-.106-.052-.162-.111-.1l-3.842 4.326a2.07 2.07 0 01-.682.044.5.5 0 01-.4-.723c.164-.412 4.025-4.21 3.692-4.08s-3.954 4.022-4.223 3.974-.78-.539-.6-.753c.934-1.122 3.276-3.349 2.931-3.5-.132-.062-3.974 5.092-5.851 3.987z" fill="#eac5af" fill-rule="evenodd"/><g data-name="Group 6532"><path data-name="Rectangle 1832" fill="#808082" d="M156.905 142.226h4.141v22.442h-4.141z"/><path data-name="Rectangle 1833" fill="#8b8b8c" d="M156.905 142.226h2.07v22.442h-2.07z"/></g><path data-name="Path 2911" d="M162.251 161.59H155.7v15l-15.189 2.629a2.055 2.055 0 00-1.9 1.924c0 1.058.869 2.1 1.9 1.924l16.563-2.869h3.8l16.563 2.869c1.028.178 1.9-.865 1.9-1.924a2.055 2.055 0 00-1.9-1.924l-15.184-2.63z" fill="#424243" fill-rule="evenodd"/><path data-name="Path 2912" d="M177.635 185.759a2.58 2.58 0 112.545-2.58 2.567 2.567 0 01-2.545 2.58z" fill="#424243" fill-rule="evenodd"/><path data-name="Path 2913" d="M140.515 185.759a2.58 2.58 0 112.545-2.58 2.568 2.568 0 01-2.545 2.58z" fill="#424243" fill-rule="evenodd"/><path data-name="Path 2914" d="M159.051 185.759a2.58 2.58 0 112.545-2.58 2.567 2.567 0 01-2.545 2.58z" fill="#424243" fill-rule="evenodd"/><path data-name="Path 2915" d="M173.381 142.913h-32.392a2.5 2.5 0 00-2.472 2.506 2.5 2.5 0 002.472 2.506h32.392a2.5 2.5 0 002.47-2.506 2.5 2.5 0 00-2.47-2.506z" fill="#6d6e70" fill-rule="evenodd"/><path data-name="Path 2916" d="M190.727 73.585c-1.742.383-10.88 4.439-11.736 5.54s-1.531 4.589-1.531 4.589c1.231-.619 9.349-5.523 14.781-6.324.311-.046-.56-3.471-1.514-3.805z" fill="#d4b338" fill-rule="evenodd"/><path data-name="Path 2917" d="M189.788 80.81c1.134 3.117 1.29 7.213-.825 9.087-2.9 2.566-15.817 12.768-19.736 14.38 0 0-2.533.29-7.176-8.624 0 0 10.2-8.626 18.993-14.519 3.106-2.077 7.623-3.402 8.744-.324z" fill="#f1c930" fill-rule="evenodd"/><path data-name="Path 2918" d="M190.515 83.843c.291 2.376-.081 4.754-1.552 6.057-2.9 2.566-15.817 12.768-19.736 14.38 0 0-2.533.29-7.176-8.624 0 0 3.465 5.719 5.493 6.3s18.39-10.945 20.725-13.685c2.281-2.679 2.249-4.357 2.246-4.428z" fill="#d4b338" fill-rule="evenodd"/><path data-name="Path 2919" d="M195.386 73.584c15.411-11.238-6.335 54.151-10.147 66.254-2.812 8.926-50 6.513-54.367 5.7-2.125-.4-3.538-3.124-.929-6.163 2.292-2.669 34.525-1.917 39.579-3.41s5.434-.336 10.885-13.829 10.5-27.128 12.3-36.616 2.679-11.936 2.679-11.936z" fill="#424243" fill-rule="evenodd"/><path data-name="Path 2920" d="M198.294 72.299c9.276-.247-9.535 56.364-13.056 67.541-2.812 8.925-50 6.513-54.367 5.7a2.85 2.85 0 01-2.259-2.17c2.423-3.327 20.508.525 30.362-.449s20.187-2.881 21.2-4.294c8.674-12.097 15.844-51.036 18.12-66.328z" fill="#3b3b3c" fill-rule="evenodd"/><path data-name="Rectangle 1834" fill="#babcbe" d="M145.048 105.834h6.338v79.926h-6.338z"/><path data-name="Rectangle 1835" fill="#babcbe" d="M66.205 105.383h6.338v80.376h-6.338z"/><path data-name="Rectangle 1836" fill="#babcbe" d="M53.973 104.292h109.644v3.276H53.973z"/><path data-name="Rectangle 1837" fill="#a5a7a9" d="M53.973 105.93h109.644v1.638H53.973z"/><path data-name="Path 2921" d="M152.567 139.646c-1.065-5.364-.875-19.585 5.2-25.3 7.015-6.6 23.643-4.945 32.223-5.272l-.379 5.676c-12.727-.21-36-5.122-32.335 24.58z" fill="#424243" fill-rule="evenodd"/><path data-name="Path 2922" d="M163.036 56.769a5.158 5.158 0 00-.683-.1c-.319-.04-.821.038-.8.212s.966 4.887.966 4.887 1.187-.575.94-.5-.423-4.499-.423-4.499z" fill="#424243" fill-rule="evenodd"/><path data-name="Path 2923" d="M162.221 56.776c.2 1.214.488 8.456 4.171 8.354 3.969-.109 3.213-4.584 3.091-7.012l19.832-2.594-.232-1.444-20.192 2.019c-1.04-.8-6.545 0-6.67.676zm.846.873c-.06-.685 5-.961 5.153-.676.705 1.346 1.469 7.157-1.784 7.315-2.597.125-3.064-4.949-3.371-6.639z" fill="#424243" fill-rule="evenodd"/><path data-name="Path 2924" d="M168.281 56.868a9.026 9.026 0 01.2 6.04 2.254 2.254 0 01-2.035 1.488 2.184 2.184 0 01-1.961-1.237c-.964-1.572-1.268-4.227-1.482-5.47-.083-1.005 5.17-1.028 5.278-.821z" fill="#cae2ec" fill-rule="evenodd"/><path data-name="Path 2925" d="M168.909 59.981a6.893 6.893 0 01-.432 2.929 2.757 2.757 0 01-.624.915c-1.2-1.12-2.956-2.771-4.546-4.27-.134-.732-.227-1.4-.308-1.863-.057-.713 2.122-.826 2.609-.869z" fill="#e5e6e7" fill-rule="evenodd"/><path data-name="Path 2926" d="M184.656 54.35a5.122 5.122 0 012.085-.553c5.316-.417 5.939 6.219 4.346 8.14-1.311 1.581-3.134 3.242-4.464 3.335s-2.788-1.283-3.244-2.469c-.348-.905 0-4.083.231-5.974.12-.964.094-1.964 1.046-2.479z" fill="#f0d0bf" fill-rule="evenodd"/><path data-name="Path 2927" d="M189.498 54.362c2.723 1.6 2.848 6.058 1.59 7.575-1.311 1.581-3.134 3.242-4.464 3.335a2.753 2.753 0 01-1.758-.607 8.633 8.633 0 003.19-1c1.363-.867 2.694-1.864 3.106-3.149a5.413 5.413 0 00-.158-3.823 5.621 5.621 0 00-1.506-2.331z" fill="#eac5af" fill-rule="evenodd"/><path data-name="Path 2928" d="M189.491 56.801c.557 1.514.268 4.1-.841 5.065s-2.294 1.4-2.925.69-.936-1.473-.38-1.761 1.011-.228 1.157-.862.065-1.09-.357-1.245-.441.166-.436-.831a2.027 2.027 0 013.782-1.056z" fill="#d6ac95" fill-rule="evenodd"/><path data-name="Path 2929" d="M71.581 66.838c-.407 1.1-3.4 12.25-5.6 21.407-1.355 5.625-2.418 10.517-2.418 11.926 0 4.116 2.648 4.119 2.656 4.119h21.555v-1.028H66.223c-.107 0-1.648-.1-1.648-3.095 0-1.328 1.049-6.134 2.386-11.685 2.2-9.122 5.165-20.2 5.566-21.287z" fill="#a5a7a9" fill-rule="evenodd"/><path data-name="Path 2930" d="M73.821 39.353l1.2-.088 4.227 59.258-1.168.086c-3.049-6.706-5.458-17.293-6.323-29.319a129.34 129.34 0 01-.314-7.088c-.157-9.139.731-17.19 2.378-22.849z" fill="#babcbe" fill-rule="evenodd"/><path data-name="Path 4322" d="M78.078 98.609l-4.297-59.235 2.99-.219L81.07 98.39z" fill="#cfd0d2"/><path data-name="Path 2931" d="M189.905 41.389a12.59 12.59 0 00-6.877-4.465c-7.016-1.7-18.888 3.867-18.76 3.855.349-.032 6.56-1.349 10.648-1.992a21.209 21.209 0 018.778 1 51.535 51.535 0 00-6.908 2.281 43.546 43.546 0 01-9.444 2.12 99.68 99.68 0 0012.549-1.028 12.815 12.815 0 004.943-1.831 6.67 6.67 0 01-2.377 3.245 17.072 17.072 0 01-4.151 2.216c.222-.1 5.514-.739 7.447-1.8a24.865 24.865 0 012.535-1.285 16.4 16.4 0 01-2.472 3.6c-1.412 1.449-2.535 1.928-2.155 1.831s4.627-1.638 5.894-3.084 1.553-2.634 1.426-2.474-2.123 1.542-1.9 1.381a9.519 9.519 0 001.363-2.281c-.253.161-4.056.706-4.056.706a8.459 8.459 0 011.711-1.06 13.854 13.854 0 011.363-.418 7.445 7.445 0 00-2.377-1.028 11.193 11.193 0 00-2.091-.514c.189-.429 4.911.636 4.911 1.025z" fill="#7c6b54" fill-rule="evenodd"/><path data-name="Path 2932" d="M193.553 46.981s1.775.835 2.63 3.823a10.1 10.1 0 01-.729 7.26 11.97 11.97 0 01-1.711 2.924 12.875 12.875 0 001.648-5.847 12.2 12.2 0 00-.729-4.176 9.9 9.9 0 01.032 3.791 10.849 10.849 0 01-1.648 4.626 11.832 11.832 0 00.507-5.589 12.686 12.686 0 00-1.58-4.467 12.489 12.489 0 01.443 4.5 7.2 7.2 0 01-.7 2.506 15.513 15.513 0 00-1.236-4.851c-1.014-2.409-1.711-3.02-1.648-2.859a10.427 10.427 0 01.507 3.662c-.222 1.189-.254 1.542-.222 1.189a14.689 14.689 0 00-1.077-4.176c-.6-1.157-.856-1.317-.824-1.285a2.769 2.769 0 01.761.5 6.092 6.092 0 01.428.474c-.016-.048-.127-1.293-.127-1.293s.087.04.626.4a6.959 6.959 0 01.911.835c-.048-.1-1.1-1.695-1.1-1.695a3.708 3.708 0 011.735.362 5.568 5.568 0 011.117.715c-.016-.04-1.03-1.414-.983-1.414a8.9 8.9 0 012.282.787c.642.425 1.117.9 1.109.859s-1.727-2.024-1.632-2.016 1.21.455 1.21.455z" fill="#7c6b54" fill-rule="evenodd"/><path data-name="Path 2933" d="M96.436 182.227c5.805 1.345 7.071 1.452 9.326 1.96.049 1.01-.328 1.05-.865 1.659s-26.123-5.75-27.826-6.59-1.552-2.924-1.224-4.232c1.587 3.447 14.783 5.86 20.589 7.203z" fill="#a08a6c" fill-rule="evenodd"/><path data-name="Rectangle 1839" fill="#cfd0d2" d="M67.024 109.439h1.779v71.958h-1.779z"/><path data-name="Rectangle 1840" fill="#cfd0d2" d="M145.931 109.439h1.779v71.958h-1.779z"/><path data-name="Rectangle 1841" fill="#424243" d="M144.6 184.095h7.289v1.665H144.6z"/><path data-name="Rectangle 1842" fill="#424243" d="M65.729 184.095h7.289v1.665h-7.289z"/><g data-name="Group 6538"><path data-name="Rectangle 1843" fill="#59595b" d="M77.474 103.322h6.759v.876h-6.759z"/><g data-name="Group 6533" fill-rule="evenodd"><path data-name="Path 2934" d="M80.728 82.145l.027 13.8h-2.909l-.027-13.8 2.909-.005zm-.932 13.211v.131h.9v-.131h-.9zm-.025-12.657v.131h.9v-.131zm.436.315v.132h.467v-.132zm0 .316v.131h.468v-.132zm0 .317v.131h.467v-.131zm0 .317v.131h.467v-.131zm-.435.317v.131h.9v-.132h-.9zm.436.316v.131h.467v-.131zm0 .316v.132h.467v-.131zm0 .317v.131h.467v-.13zm0 .316v.131h.467v-.131zm-.434.317v.131h.9v-.131h-.9zm.436.316v.131h.467v-.131zm0 .316v.131h.468v-.132zm0 .316v.132h.467v-.131zm0 .316v.131h.468v-.131zm-.434.317v.131h.9v-.131h-.9zm.435.316v.131h.468v-.131zm0 .316v.131h.467v-.131zm0 .316v.131h.467v-.135zm0 .316v.131h.467v-.13zm-.434.317v.131h.9v-.131h-.9zm.436.316v.131h.468v-.131zm0 .316v.131h.468v-.131zm0 .316v.132h.467v-.131zm0 .317v.131h.468v-.133zm-.434.317v.131h.9v-.131zm.435.316v.131h.468v-.131zm0 .316v.131h.467v-.131zm0 .316v.131h.468v-.131zm0 .316v.131h.468v-.131zm-.434.317v.131h.9v-.131zm.436.316v.131h.467v-.131zm0 .316v.131h.468v-.131zm0 .316v.131h.467v-.131zm0 .316v.131h.467v-.131zm-.434.317v.131h.9v-.131h-.9zm.436.315v.131h.467v-.127zm0 .316v.132h.467v-.131zm0 .316v.131h.467v-.131zm0 .316v.132h.467v-.131z" fill="#6d6e70"/><path data-name="Path 2935" d="M78.644 95.953h-.8l-.027-13.8h.825z" fill="#919395"/></g><g data-name="Group 6534" fill-rule="evenodd"><path data-name="Path 2936" d="M81.443 88.17l.693.061.156-1.563a.176.176 0 00-.037-.13l-.117-.063-.349-.029a.177.177 0 00-.19.161z" fill="#babcbe"/><path data-name="Path 2937" d="M80.803 88.977l1.8.156.14-1.388a.226.226 0 00-.049-.168.222.222 0 00-.153-.082l-1.352-.119a.224.224 0 00-.165.054.235.235 0 00-.083.156z" fill="#59595b"/><path data-name="Path 2938" d="M81.944 87.444l-.754-.066a.224.224 0 00-.166.054.234.234 0 00-.083.156l-.135 1.347 1.011-.231.126-1.259z" fill="#424243"/><path data-name="Path 2939" d="M81.33 101.848l1.367-13.645-1.8-.159-1.366 13.637z" fill="#59595b"/><path data-name="Path 2940" d="M80.451 101.766l1.426-13.634-.982-.087-1.366 13.637z" fill="#424243"/><path data-name="Path 2941" d="M80.887 88.127l.022-.209 1.99.174h.038l.106.057.034.116-.365 3.64-.193-.017-.183-.057.084-.841.211-.214.233-2.32-.034-.116-.1-.055z" fill="#aaaaad"/></g><g data-name="Group 6535" fill-rule="evenodd"><path data-name="Path 2942" d="M76.917 89.291l.892-.084 1.383 12.888-.893.084z" fill="#424243"/><path data-name="Path 2943" d="M77.363 89.249l.446-.042 1.383 12.888-.446.042z" fill="#38383a"/><path data-name="Path 2944" d="M76.751 86.076c-.005-.1.515-.164.537-.051l.715 4.132-1.045.1.3 2.822h-.018c-.035-.023-.034-.008-.133-.557s-.408-2.3-.41-2.537c-.006-1.342.088-2.385.054-3.909z" fill="#424243"/><path data-name="Path 2945" d="M76.932 90.023l1.119-.106.024.232-1.118.105z" fill="#504e69"/></g><g data-name="Group 6536" fill-rule="evenodd"><path data-name="Path 2946" d="M85.23 89.837l-2.911 9.971-1.041-.267 2.912-9.972.578-.06z" fill="#1f3b4f"/><path data-name="Path 2947" d="M85.23 89.836l-2.911 9.971-.519-.13 3-10.268z" fill="#24485e"/><path data-name="Path 2948" d="M84.19 89.569l1.215-2.246-.174 2.5c-.071.074-.168.213-.254.194-.165-.038.012-.389-.215-.449s-.277.331-.433.291-.139-.29-.139-.29z" fill="#f0d0bf"/><path data-name="Path 2949" d="M85.405 87.323l-.174 2.5c-.071.074-.168.213-.254.194-.165-.038.012-.389-.215-.449h-.012z" fill="#d0b3a4"/><path data-name="Path 2950" d="M85.036 88.005l.369-.682-.053.764z" fill="#434343"/></g><g data-name="Group 6537" fill-rule="evenodd"><path data-name="Path 2951" d="M84.389 88.596l-1.516 10.24-1.069-.138 1.517-10.241.565-.13z" fill="#1f3b4f"/><path data-name="Path 2952" d="M84.389 88.596l-1.516 10.24-.534-.069L83.9 88.222z" fill="#24485e"/><path data-name="Path 2953" d="M83.325 88.457l.9-2.374.171 2.5c-.061.082-.138.232-.225.224-.169-.018-.042-.388-.276-.42s-.229.362-.389.341-.181-.271-.181-.271z" fill="#f0d0bf"/><path data-name="Path 2954" d="M84.217 86.083l.171 2.5c-.061.082-.138.232-.225.224-.169-.018-.041-.388-.276-.42h-.007z" fill="#d0b3a4"/><path data-name="Path 2955" d="M83.944 86.805l.273-.722.052.764z" fill="#434343"/></g><path data-name="Path 2956" d="M76.825 92.676v10.3a.754.754 0 00.664.814h6.745a.754.754 0 00.665-.814v-10.3z" fill="#6d6e70" fill-rule="evenodd"/><path data-name="Rectangle 1844" fill="#424243" d="M76.825 92.676h8.073v1.099h-8.073z"/><path data-name="Path 2957" d="M76.825 102.977v-9.2h4.036v10.016h-3.373a.754.754 0 01-.663-.816z" fill="#7f8083" fill-rule="evenodd"/><path data-name="Rectangle 1845" fill="#545557" d="M76.825 92.676h4.036v1.099h-4.036z"/></g><path data-name="Path 2958" d="M57.268 94.837a.649.649 0 00-.589.7v3.533a.651.651 0 00.589.7H78.58a.651.651 0 00.59-.7v-3.533a.649.649 0 00-.59-.7z" fill="#9b6063" fill-rule="evenodd"/><path data-name="Path 2959" d="M57.201 91.714a.493.493 0 00-.523.455v2.3a.494.494 0 00.523.455h18.913a.494.494 0 00.524-.455v-2.3a.494.494 0 00-.524-.455z" fill="#6da3ab" fill-rule="evenodd"/><path data-name="Path 2960" d="M54.882 87.223a.647.647 0 00-.651.641v3.244a.647.647 0 00.651.642h23.554a.646.646 0 00.65-.642v-3.244a.646.646 0 00-.65-.641z" fill="#8f5744" fill-rule="evenodd"/><g data-name="Group 6539" fill="#a8908d"><path data-name="Rectangle 1846" d="M77.622 94.837h.515v4.927h-.515z"/><path data-name="Rectangle 1847" d="M76.932 94.837h.514v4.927h-.514z"/><path data-name="Rectangle 1848" d="M76.242 94.837h.514v4.927h-.514z"/><path data-name="Rectangle 1849" d="M58.306 95.964h.516v2.607h-.516z"/><path data-name="Rectangle 1850" d="M57.617 95.964h.514v2.607h-.514z"/></g><g data-name="Group 6540"><path data-name="Path 2961" d="M56.151 99.767a.646.646 0 00-.651.64v3.246a.647.647 0 00.651.641h23.554a.646.646 0 00.651-.641v-3.246a.646.646 0 00-.651-.64z" fill="#e19c6a" fill-rule="evenodd"/><path data-name="Rectangle 1851" fill="#9a653b" d="M59.525 99.766h1.036v4.526h-1.036z"/><path data-name="Rectangle 1852" fill="#9a653b" d="M57.972 99.764h1.035v4.528h-1.035z"/></g><g data-name="Group 6541" fill="#e5e6e7"><path data-name="Rectangle 1853" d="M62.665 90.373h7.987v.628h-7.987z"/><path data-name="Rectangle 1854" d="M62.665 89.173h7.987v.629h-7.987z"/><path data-name="Rectangle 1855" d="M62.665 87.975h7.987v.627h-7.987z"/></g><path data-name="Rectangle 1856" fill="#81c3cd" d="M72.992 92.591h2.123v1.703h-2.123z"/><path data-name="Rectangle 1857" fill="#81c3cd" d="M58.161 92.575h5.767v1.735h-5.767z"/><g data-name="Group 6542" fill-rule="evenodd"><path data-name="Path 2962" d="M42.52 142.01a1.621 1.621 0 00-1.606 1.628v4.283a1.621 1.621 0 001.606 1.627 1.621 1.621 0 001.606-1.627v-4.283a1.621 1.621 0 00-1.606-1.628z" fill="#718e8c"/><path data-name="Path 2963" d="M42.52 149.55a1.622 1.622 0 00-1.606 1.628v4.283a1.621 1.621 0 001.606 1.628 1.622 1.622 0 001.606-1.628v-4.283a1.622 1.622 0 00-1.606-1.628z" fill="#da814a"/><path data-name="Path 2964" d="M73.785 134.471H42.52a1.621 1.621 0 00-1.609 1.629v4.283a1.621 1.621 0 001.606 1.628v29.28h31.265z" fill="#c5a96a"/></g><path data-name="Path 2965" d="M46.479 145.465a1.389 1.389 0 00-1.643 1.081l-.758 3.615a1.409 1.409 0 001.067 1.666 1.39 1.39 0 001.643-1.082l.758-3.615a1.408 1.408 0 00-1.067-1.665z" fill="#745769" fill-rule="evenodd"/><path data-name="Path 2966" d="M45.145 151.827a1.389 1.389 0 00-1.643 1.082l-.758 3.615a1.408 1.408 0 001.067 1.665 1.389 1.389 0 001.643-1.081l.758-3.615a1.408 1.408 0 00-1.067-1.666z" fill="#7a6b64" fill-rule="evenodd"/><path data-name="Path 2967" d="M74.199 144.789l-26.386-5.687a1.39 1.39 0 00-1.643 1.082l-.758 3.615a1.409 1.409 0 001.067 1.666l-5.182 24.71 26.386 5.687z" fill="#49535a" fill-rule="evenodd"/><path data-name="Path 2968" d="M76.49 141.586H64.659v.046l-30.084 23.1v21.031H76.49z" fill="#da8267" fill-rule="evenodd"/><path data-name="Rectangle 1858" fill="#b36c3e" d="M34.575 178.203h41.914v7.557H34.575z"/><path data-name="Rectangle 1859" fill="#796a53" d="M34.575 175.29h41.914v1.475H34.575z"/><path data-name="Rectangle 1860" fill="#cfd0d2" d="M34.102 104.163h5.888v79.218h-5.888z"/><path data-name="Rectangle 1861" fill="#babcbe" d="M34.102 104.163h2.944v79.218h-2.944z"/><g data-name="Group 6543"><path data-name="Path 4323" d="M30.853 175.145l-6.412-59.986 5.881-.64 6.412 59.985z" fill="#cfd0d2"/><path data-name="Path 4324" d="M30.853 175.145l-6.412-59.985 2.954-.319 6.412 59.985z" fill="#babcbe"/></g><g data-name="Group 6544"><path data-name="Path 4320" d="M28.574 175.059l-5.828-.842 8.403-59.73 5.826.84z" fill="#cfd0d2"/><path data-name="Path 4321" d="M25.66 174.638l-2.915-.422 8.402-59.73 2.915.42z" fill="#babcbe"/></g><path data-name="Path 2969" d="M40.956 137.342H20.172v48.418h20.784v-48.418zm-4.333 11.825h1.132v23.421h-1.132v-23.421zm-4.417 0h1.133v23.421h-1.133v-23.421zm-4.417 0h1.132v23.421h-1.136v-23.421zm-4.417 0h1.132v23.421h-1.132z" fill="#9d896c" fill-rule="evenodd"/><path data-name="Rectangle 1866" fill="#59584d" d="M20.172 183.38h20.784v2.499H20.172z"/></g><g data-name="Group 7160"><path data-name="Path 941" d="M89.4 282.374l-74.736-34.021C5.519 243.983-.1 235.712 0 226.973V224.1l74.738 33.93c9.145 4.37 14.759 12.656 14.669 21.4z" transform="translate(126.832 -144.644)" fill="url(#a)"/><path data-name="Path 942" d="M183.929 319.62L32.681 260.583C14.168 253 2.8 238.64 2.991 223.473V218.5l151.248 58.882c18.491 7.584 29.885 21.943 29.69 37.11z" transform="translate(31.761 -131.444)" fill="url(#b)"/></g></g><path data-name="Path 4291" d="M102.673 36.824a15.43 15.43 0 0121.252 2.151 15.82 15.82 0 013.776 10.793 4.778 4.778 0 002.267 4.212l2.594 1.601a1.014 1.014 0 01-.48 1.874l-4.521.177a4.727 4.727 0 00-3.464 1.733 15.632 15.632 0 01-3.19 2.929 15.417 15.417 0 01-20.428-2.67 15.886 15.886 0 012.194-22.8z" fill="#ff525d"/><path data-name="Path 4292" d="M144.633 28.108a5.959 5.959 0 00-1.039 5.746c-.129 2.123 4.382 7.771-1.473 3.482l-3.051-2.31a5.7 5.7 0 00-4.494-1.062 17.871 17.871 0 01-2.986.364 17.165 17.165 0 1116.932-17.164 17.239 17.239 0 01-3.889 10.944z" fill="#ffd15c"/><g data-name="Group 7257"><path data-name="Path 4294" d="M115.433 48.248a3.683 3.683 0 00-1.025 3.842c.087.545-.099 1.221-1.486 1.444-1.16.184-1.624-.18-1.857-1.672a5.367 5.367 0 011.215-4.665c.808-.954 2.254-2.098 2.012-3.647-.205-1.32-1.433-1.77-2.852-1.543-2.887.463-1.92 2.573-3.447 2.818a1.645 1.645 0 01-1.955-1.366c-.245-1.546 1.155-4.123 4.976-4.737 3.623-.582 6.346 1.07 6.773 3.766s-1.684 5.036-2.354 5.76zm.351 9.122a2.253 2.253 0 01-1.835 2.554 2.206 2.206 0 01-2.496-1.864 2.229 2.229 0 011.805-2.555 2.23 2.23 0 012.526 1.865z" fill="#f9eed7"/></g><path data-name="Path 4295" d="M133.98 26.654a2.46 2.46 0 01-2.375 2.439 2.44 2.44 0 112.375-2.439zm-.594-6.018c0 .982-1.063 1.394-1.812 1.394-1 0-1.843-.412-1.843-1.394 0-3.769-.437-9.186-.437-12.956 0-1.235 1-1.932 2.281-1.932a2.017 2.017 0 012.25 1.932c-.002 3.774-.439 9.19-.439 12.96z" fill="#f9eed7"/></g></svg>